# xmcd
# 
# Track frame offsets:
#     150
#     8752
#     22057
#     35977
#     49610
#     57835
#     68882
#     93875
#     106442
#     118955
#     130910
#     147595
#     158382
# 
# Disc length: 2363
# 
# Revision: 4
# Processed by: cddbd v1.5.2PL0 Copyright (c) Steve Scherf et al.
# Submitted via: fre:ac v1.0.17
# 
DISCID=b409390d
DTITLE=The Jimi Hendrix Experience - Axis: Bold As Love
DYEAR=1967
DGENRE=Pop/Rock
TTITLE0=EXP
TTITLE1=Up From The Skies
TTITLE2=Spanish Castle Magic
TTITLE3=Wait Until Tomorrow
TTITLE4=Ain't No Telling
TTITLE5=Little Wing
TTITLE6=If 6 Was 9 
TTITLE7=You Got Me Floatin'
TTITLE8=Castles Made Of Sand
TTITLE9=She's So Fine
TTITLE10=One Rainy Wish
TTITLE11=Little Miss Lover
TTITLE12=Bold As Love
EXTD=
EXTT0=
EXTT1=
EXTT2=
EXTT3=
EXTT4=
EXTT5=
EXTT6=
EXTT7=
EXTT8=
EXTT9=
EXTT10=
EXTT11=
EXTT12=
PLAYORDER=
